<svg width="200" height="41" viewBox="0 0 200 41" fill="none" xmlns="http://www.w3.org/2000/svg">
<path d="M53.6792 11.642H54.5347V20.1953H53.1089L47.4059 13.4121V19.6251C47.4059 20.0052 47.2158 20.1953 46.8356 20.1953H45.9802V11.642H47.4059L53.1089 18.4252V12.2123C53.1089 11.8321 53.299 11.642 53.6792 11.642ZM67.5606 19.0549C67.9408 19.0549 68.1309 19.2449 68.1309 19.6251V20.1953H60.0042V11.642H67.9883V12.2123C67.9883 12.5924 67.7982 12.7825 67.418 12.7825H61.4299V15.3484H67.5606V16.4889H61.4299V19.0549H67.5606ZM81.1373 11.642H81.9928V17.2017C81.9928 19.1974 80.9948 20.1953 78.9987 20.1953H76.2898C74.2938 20.1953 73.2957 19.1974 73.2957 17.2017V11.642H74.1512C74.5314 11.642 74.7215 11.8321 74.7215 12.2123V17.2017C74.7215 18.4371 75.3393 19.0549 76.575 19.0549H78.7136C79.9492 19.0549 80.567 18.4371 80.567 17.2017V12.2123C80.567 11.8321 80.7571 11.642 81.1373 11.642ZM92.9984 16.4889L96.0994 20.1953H94.9945C94.6143 20.1953 94.2697 20.0052 93.9489 19.6251L91.3232 16.4889H88.8281V19.6251C88.8281 20.0052 88.638 20.1953 88.2578 20.1953H87.4024V11.642H93.2479C94.8638 11.642 95.6717 12.4498 95.6717 14.0654C95.6717 15.6811 94.8638 16.4889 93.2479 16.4889H92.9984ZM88.8281 15.3484H92.9628C93.8182 15.3484 94.2459 14.9208 94.2459 14.0654C94.2459 13.2101 93.8182 12.7825 92.9628 12.7825H88.8281V15.3484ZM106.631 11.642C108.627 11.642 109.625 12.6399 109.625 14.6356V17.2017C109.625 19.1974 108.627 20.1953 106.631 20.1953H103.779C101.783 20.1953 100.785 19.1974 100.785 17.2017V14.6356C100.785 12.6399 101.783 11.642 103.779 11.642H106.631ZM108.199 17.2017V14.6356C108.199 13.4002 107.581 12.7825 106.346 12.7825H104.064C102.829 12.7825 102.211 13.4002 102.211 14.6356V17.2017C102.211 18.4371 102.829 19.0549 104.064 19.0549H106.346C107.581 19.0549 108.199 18.4371 108.199 17.2017ZM123.244 11.642H124.669V20.1953H123.814C123.434 20.1953 123.244 20.0052 123.244 19.6251V13.4121L119.822 17.4868L116.4 13.4121V19.6251C116.4 20.0052 116.21 20.1953 115.83 20.1953H114.974V11.642H116.4L119.822 15.7167L123.244 11.642ZM134.959 11.642L138.951 20.1953H138.108C137.728 20.1953 137.443 20.0052 137.264 19.6251L136.599 18.1996H131.894L131.229 19.6251C131.05 20.0052 130.765 20.1953 130.385 20.1953H129.542L133.534 11.642H134.959ZM132.417 17.0591H136.076L134.247 13.1507L132.417 17.0591ZM149.419 16.4889L152.52 20.1953H151.415C151.035 20.1953 150.69 20.0052 150.369 19.6251L147.744 16.4889H145.249V19.6251C145.249 20.0052 145.058 20.1953 144.678 20.1953H143.823V11.642H149.668C151.284 11.642 152.092 12.4498 152.092 14.0654C152.092 15.6811 151.284 16.4889 149.668 16.4889H149.419ZM145.249 15.3484H149.383C150.239 15.3484 150.666 14.9208 150.666 14.0654C150.666 13.2101 150.239 12.7825 149.383 12.7825H145.249V15.3484ZM166.022 11.642L162.434 15.9187L166.022 20.1953H164.917C164.537 20.1953 164.192 20.0052 163.871 19.6251L161.246 16.4889H158.75V19.6251C158.75 20.0052 158.56 20.1953 158.18 20.1953H157.325V11.642H158.18C158.56 11.642 158.75 11.8321 158.75 12.2123V15.3484H161.246L163.871 12.2123C164.192 11.8321 164.537 11.642 164.917 11.642H166.022ZM178.627 19.0549C179.007 19.0549 179.197 19.2449 179.197 19.6251V20.1953H171.07V11.642H179.054V12.2123C179.054 12.5924 178.864 12.7825 178.484 12.7825H172.496V15.3484H178.627V16.4889H172.496V19.0549H178.627ZM183.828 11.642H192.667V12.2123C192.667 12.5924 192.477 12.7825 192.097 12.7825H188.96V20.1953H187.535V12.7825H184.398C184.018 12.7825 183.828 12.5924 183.828 12.2123V11.642Z" fill="#0F172A"/>
<path d="M46.4566 26.935C46.7291 26.935 46.8653 27.0713 46.8653 27.3437V33.0657H46.2523C45.9798 33.0657 45.8436 32.9295 45.8436 32.657V26.935H46.4566ZM53.3006 26.935L56.1616 33.0657H55.557C55.2846 33.0657 55.0802 32.9295 54.9525 32.657L54.4756 31.6352H51.1038L50.6269 32.657C50.4992 32.9295 50.2949 33.0657 50.0224 33.0657H49.4178L52.2788 26.935H53.3006ZM51.4784 30.8178H54.101L52.7897 28.0164L51.4784 30.8178ZM58.7334 32.6059C58.7334 32.3959 58.7845 32.2483 58.8866 32.1631C58.9888 32.078 59.1108 32.0354 59.2528 32.0354C59.4003 32.0354 59.5252 32.078 59.6274 32.1631C59.7352 32.2483 59.7892 32.3959 59.7892 32.6059C59.7892 32.8103 59.7352 32.9579 59.6274 33.0487C59.5252 33.1395 59.4003 33.1849 59.2528 33.1849C59.1108 33.1849 58.9888 33.1395 58.8866 33.0487C58.7845 32.9579 58.7334 32.8103 58.7334 32.6059ZM68.1131 30.0004H68.7261V33.0657H64.8434C63.4129 33.0657 62.6976 32.3505 62.6976 30.92V29.0808C62.6976 27.6503 63.4129 26.935 64.8434 26.935H68.624V27.3437C68.624 27.6162 68.4877 27.7524 68.2152 27.7524H65.0477C64.1622 27.7524 63.7194 28.1952 63.7194 29.0808V30.92C63.7194 31.8055 64.1622 32.2483 65.0477 32.2483H67.7044V30.4091C67.7044 30.1366 67.8406 30.0004 68.1131 30.0004ZM76.9546 32.2483C77.227 32.2483 77.3633 32.3845 77.3633 32.657V33.0657H71.5391V26.935H77.2611V27.3437C77.2611 27.6162 77.1249 27.7524 76.8524 27.7524H72.5609V29.5916H76.9546V30.4091H72.5609V32.2483H76.9546ZM85.6883 26.935H86.3014V33.0657H85.2796L81.1925 28.2037V32.657C81.1925 32.9295 81.0562 33.0657 80.7838 33.0657H80.1707V26.935H81.1925L85.2796 31.797V27.3437C85.2796 27.0713 85.4158 26.935 85.6883 26.935ZM88.8589 26.935H95.194V27.3437C95.194 27.6162 95.0577 27.7524 94.7852 27.7524H92.5373V33.0657H91.5155V27.7524H89.2676C88.9951 27.7524 88.8589 27.6162 88.8589 27.3437V26.935ZM103.165 32.2483C103.438 32.2483 103.574 32.3845 103.574 32.657V33.0657H97.7499V26.935H103.472V27.3437C103.472 27.6162 103.336 27.7524 103.063 27.7524H98.7717V29.5916H103.165V30.4091H98.7717V32.2483H103.165ZM110.605 29.5916C111.763 29.5916 112.342 30.1707 112.342 31.3287C112.342 32.4867 111.763 33.0657 110.605 33.0657H106.314V32.657C106.314 32.3845 106.45 32.2483 106.722 32.2483H110.401C111.014 32.2483 111.32 31.9417 111.32 31.3287C111.32 30.7156 111.014 30.4091 110.401 30.4091H107.949C106.79 30.4091 106.211 29.8301 106.211 28.672C106.211 27.514 106.79 26.935 107.949 26.935H112.138V27.3437C112.138 27.6162 112.001 27.7524 111.729 27.7524H108.152C107.54 27.7524 107.233 28.059 107.233 28.672C107.233 29.2851 107.54 29.5916 108.152 29.5916H110.605Z" fill="#1E61FF"/>
</svg>
